<?xml version="1.0" encoding="utf-8"?>
<!-- Generator: Adobe Illustrator 28.0.0, SVG Export Plug-In . SVG Version: 6.00 Build 0)  -->
<svg version="1.1" id="Layer_1" xmlns="http://www.w3.org/2000/svg" xmlns:xlink="http://www.w3.org/1999/xlink" x="0px" y="0px"
	 viewBox="0 0 279.5 62.5" style="enable-background:new 0 0 279.5 62.5;" xml:space="preserve">
<style type="text/css">
	.st0{fill:#E4B267;}
</style>
<g>
	<g>
		<g>
			<g>
				<path class="st0" d="M77.73,26.73h4.28V27c-0.99,0.88-1.84,2.64-1.84,4.86v22.71h-0.34L59.37,34.07v15.37
					c0,2.22,0.84,3.98,1.84,4.86v0.27h-4.28V54.3c1.07-0.99,1.84-2.64,1.84-4.86V33.92c0-4.86-0.8-6.5-1.76-6.88v-0.31h6
					l16.56,16.14V31.85c0-2.22-0.76-3.86-1.84-4.86V26.73z"/>
				<path class="st0" d="M84.18,40.49c0-7.95,6.08-13.99,14.22-13.99c8.14,0,14.22,5.81,14.22,13.76c0,8.26-6.08,14.57-14.22,14.57
					C90.26,54.83,84.18,48.75,84.18,40.49z M103.49,40.38c0.04-11.43-2.48-13.31-5.09-13.31c-2.6,0-5.09,1.87-5.05,13.31
					c0.04,12.12,2.45,13.88,5.05,13.88C101.01,54.26,103.45,52.5,103.49,40.38z"/>
				<path class="st0" d="M133.31,26.73h5.62V27c-1.34,0.57-2.06,1.76-2.41,2.52l-10.4,25.04h-0.54L114.5,30.97
					c-0.69-1.38-1.68-2.75-2.91-3.98v-0.27h13.92V27c-1.84,0.57-3.02,1.91-1.99,4.09l6.04,13.34l5.62-13.5
					c0.84-1.99-0.69-3.29-1.87-3.94V26.73z"/>
				<path class="st0" d="M157.75,50.86c0.46,0.92,0.96,2.52,2.52,3.44v0.27H146.5V54.3c1.84-0.57,2.98-1.91,1.99-4.09l-2.06-4.51
					l-7.72-0.04l-1.68,4.05c-0.84,2.06,0.5,3.94,1.64,4.59v0.27h-5.58V54.3c1.3-0.8,2.06-1.76,2.41-2.52l10.36-25.04h0.54
					L157.75,50.86z M139.01,44.93h7.07l-3.67-8.11L139.01,44.93z"/>
				<path class="st0" d="M188.48,27c-0.96,0.38-1.72,2.06-1.72,3.48v20.34c0,1.41,0.76,3.1,1.72,3.48v0.27h-11.62V54.3
					c0.96-0.38,1.72-2.06,1.72-3.48V39.65h-8.18v11.17c0,1.41,0.76,3.1,1.72,3.48v0.27h-11.62V54.3c0.96-0.38,1.72-2.06,1.72-3.48
					V30.48c0-1.42-0.76-3.1-1.72-3.48v-0.27h11.62V27c-0.96,0.38-1.72,2.06-1.72,3.48v8.41h8.18v-8.41c0-1.42-0.76-3.1-1.72-3.48
					v-0.27h11.62V27z"/>
				<path class="st0" d="M190.93,40.49c0-7.95,6.08-13.99,14.22-13.99s14.22,5.81,14.22,13.76c0,8.26-6.08,14.57-14.22,14.57
					S190.93,48.75,190.93,40.49z M210.23,40.38c0.04-11.43-2.49-13.31-5.09-13.31c-2.6,0-5.09,1.87-5.05,13.31
					c0.04,12.12,2.45,13.88,5.05,13.88C207.75,54.26,210.2,52.5,210.23,40.38z"/>
				<path class="st0" d="M255.23,27c-0.96,0.38-1.72,2.06-1.72,3.48v20.34c0,1.41,0.76,3.1,1.72,3.48v0.27h-11.62V54.3
					c0.96-0.38,1.72-2.06,1.72-3.48V31.24l-9.29,23.32h-0.34l-11.43-24.7v20c0,0.99,0.84,3.56,1.84,4.43v0.27h-4.28V54.3
					c1.07-0.99,1.84-3.44,1.84-4.43V30.48c0-1.42-0.76-3.1-1.72-3.48v-0.27h9.64l7.91,17.09l6.77-17.09h8.99V27z"/>
				<path class="st0" d="M278.94,48.18l-1.03,6.39h-20.15V54.3c0.96-0.38,1.72-2.06,1.72-3.48V30.48c0-1.42-0.76-3.1-1.72-3.48
					v-0.27h19.04l0.99,6.39h-0.23c-1.07-2.83-3.71-5.77-9.9-5.89V39h3.82c0.76,0,2.72-1.87,3.14-3.67h0.23v7.91h-0.23
					c-0.42-1.72-2.29-3.63-3.14-3.63h-3.82v14.45c7.26-0.08,9.9-3.02,11.01-5.89H278.94z"/>
			</g>
		</g>
	</g>
	<g>
		<path class="st0" d="M20.22,34.95c-1.06-7.77-4.25-14.86-8.96-20.67C8.31,10.65,4.76,7.51,0.77,5.03v56.81h14.14h3.53h2.17v-3.69
			V40.71C20.61,38.76,20.48,36.83,20.22,34.95z"/>
		<path class="st0" d="M43.43,30.36c-2.96-9.91-9.48-18.29-18.09-23.63c-1.52-0.94-3.09-1.79-4.73-2.54c-0.22-0.1-0.44-0.2-0.67-0.3
			c-0.33-0.15-0.67-0.29-1.01-0.42C14.08,1.51,8.77,0.43,3.21,0.43c-0.87,0-1.73,0.03-2.58,0.08c2.13,0.96,4.17,2.1,6.1,3.39
			c2.38,1.59,4.59,3.43,6.58,5.47c2.91,2.95,5.38,6.34,7.31,10.05c2.74,5.25,4.4,11.16,4.68,17.42c0.03,0.65,0.05,1.29,0.05,1.95
			v23.06h9.72h5.36h4.77v-14.5V42.4C45.19,38.22,44.58,34.18,43.43,30.36z"/>
		<path class="st0" d="M45.19,9.9c-1.32-2.37-3.14-4.42-5.33-6c-3.03-2.19-6.74-3.47-10.76-3.47c-1.65,0-3.25,0.22-4.78,0.63
			c2.04,0.77,3.99,1.73,5.84,2.85c6.83,4.14,12.18,10.5,15.04,18.08c0.43,1.11,0.79,2.25,1.1,3.42c0.78-2.04,1.21-4.25,1.21-6.56
			C47.49,15.59,46.65,12.55,45.19,9.9z"/>
	</g>
</g>
</svg>
