<?xml version="1.0" encoding="utf-8"?>
<!-- Generator: Adobe Illustrator 28.0.0, SVG Export Plug-In . SVG Version: 6.00 Build 0)  -->
<svg version="1.1" id="Layer_1" xmlns="http://www.w3.org/2000/svg" xmlns:xlink="http://www.w3.org/1999/xlink" x="0px" y="0px"
	 viewBox="0 0 1024 768" style="enable-background:new 0 0 1024 768;" xml:space="preserve">
<style type="text/css">
	.st0{fill:#102C38;}
	.st1{fill:none;}
	.st2{fill:#E4B267;}
	.st3{font-family:'NotoSans-Bold';}
	.st4{font-size:28px;}
	.st5{fill:#FFFFFF;}
	.st6{font-size:13.8412px;}
	.st7{fill:#E9E6DD;}
	.st8{fill:#4C5E65;}
	.st9{font-size:14px;}
</style>
<g>
	<g>
		<g>
			<rect x="115.43" y="197.16" class="st0" width="538.92" height="176.07"/>
		</g>
		<g>
			<rect x="147.75" y="240.47" class="st1" width="87.83" height="93.96"/>
			<text transform="matrix(1 0 0 1 147.7539 261.7515)"><tspan x="0" y="0" class="st2 st3 st4">HEX                                             </tspan><tspan x="0" y="33.6" class="st2 st3 st4">RGB</tspan><tspan x="0" y="67.2" class="st2 st3 st4">CMYK</tspan></text>
			<rect x="424.6" y="240.47" class="st1" width="174.36" height="93.96"/>
			<text transform="matrix(1 0 0 1 424.5977 261.7515)"><tspan x="0" y="0" class="st2 st3 st4">#112C38RGB</tspan><tspan x="0" y="33.6" class="st2 st3 st4">17 44 56</tspan><tspan x="0" y="67.2" class="st2 st3 st4">90 69 54 57</tspan></text>
		</g>
	</g>
	<g>
		<g>
			<rect x="672.11" y="458.45" class="st5" width="237.59" height="113.39"/>
		</g>
		<g>
			<rect x="693.79" y="491.61" class="st1" width="39.7" height="47.07"/>
			<text transform="matrix(1 0 0 1 693.795 502.1259)"><tspan x="0" y="0" class="st2 st3 st6">HEX                                             </tspan><tspan x="0" y="16.61" class="st2 st3 st6">RGB</tspan><tspan x="0" y="33.22" class="st2 st3 st6">CMYK</tspan></text>
			<rect x="801.83" y="491.61" class="st1" width="86.19" height="47.07"/>
			<text transform="matrix(1 0 0 1 801.8312 502.1259)"><tspan x="0" y="0" class="st2 st3 st6">#FFFFFF</tspan><tspan x="0" y="16.61" class="st2 st3 st6">255 255 255</tspan><tspan x="0" y="33.22" class="st2 st3 st6">0 0 0 0</tspan></text>
		</g>
	</g>
	<g>
		<g>
			<g>
				<rect x="672.11" y="197.16" class="st7" width="237.59" height="113.39"/>
			</g>
		</g>
		<g>
			<rect x="693.79" y="230.32" class="st1" width="39.7" height="47.07"/>
			<text transform="matrix(1 0 0 1 693.7941 240.8378)"><tspan x="0" y="0" class="st2 st3 st6">HEX                                             </tspan><tspan x="0" y="16.61" class="st2 st3 st6">RGB</tspan><tspan x="0" y="33.22" class="st2 st3 st6">CMYK</tspan></text>
			<rect x="801.83" y="230.32" class="st1" width="86.19" height="47.07"/>
			<text transform="matrix(1 0 0 1 801.8322 240.8383)"><tspan x="0" y="0" class="st2 st3 st6">#EAE7DE</tspan><tspan x="0" y="16.61" class="st2 st3 st6">234 221 222 </tspan><tspan x="0" y="33.22" class="st2 st3 st6">7 6 11 0 </tspan></text>
		</g>
	</g>
	<g>
		<g>
			<g>
				<rect x="672.11" y="327.15" class="st8" width="237.59" height="114.69"/>
			</g>
		</g>
		<g>
			<rect x="692.68" y="360.69" class="st1" width="40.15" height="47.61"/>
			<text transform="matrix(1 0 0 1 692.6804 371.3333)"><tspan x="0" y="0" class="st2 st3 st9">HEX                                             </tspan><tspan x="0" y="16.8" class="st2 st3 st9">RGB</tspan><tspan x="0" y="33.6" class="st2 st3 st9">CMYK</tspan></text>
			<rect x="801.96" y="360.69" class="st1" width="87.18" height="47.61"/>
			<text transform="matrix(1 0 0 1 801.9578 371.333)"><tspan x="0" y="0" class="st2 st3 st9">#4D5E65</tspan><tspan x="0" y="16.8" class="st2 st3 st9">77 94 101 </tspan><tspan x="0" y="33.6" class="st2 st3 st9">71 53 48 23</tspan></text>
		</g>
	</g>
	<g>
		<g>
			<rect x="115.29" y="395.77" class="st2" width="539.18" height="176.07"/>
		</g>
		<g>
			<rect x="154.58" y="433.94" class="st1" width="90.09" height="106.83"/>
			<text transform="matrix(1 0 0 1 154.5813 455.2164)"><tspan x="0" y="0" class="st0 st3 st4">HEX                                             </tspan><tspan x="0" y="33.6" class="st0 st3 st4">RGB</tspan><tspan x="0" y="67.2" class="st0 st3 st4">CMYK</tspan></text>
			<rect x="425.21" y="433.94" class="st1" width="195.6" height="106.83"/>
			<text transform="matrix(1 0 0 1 425.2133 455.2164)"><tspan x="0" y="0" class="st0 st3 st4">#E4B267</tspan><tspan x="0" y="33.6" class="st0 st3 st4">228 178 103 </tspan><tspan x="0" y="67.2" class="st0 st3 st4">10 31 69 0</tspan></text>
		</g>
	</g>
</g>
</svg>
