<?xml version="1.0" encoding="utf-8"?>
<!-- Generator: Adobe Illustrator 28.0.0, SVG Export Plug-In . SVG Version: 6.00 Build 0)  -->
<svg version="1.1" id="Layer_1" xmlns="http://www.w3.org/2000/svg" xmlns:xlink="http://www.w3.org/1999/xlink" x="0px" y="0px"
	 viewBox="0 0 485.28 107.08" style="enable-background:new 0 0 485.28 107.08;" xml:space="preserve">
<style type="text/css">
	.st0{fill:#102C38;}
</style>
<g>
	<g>
		<g>
			<g>
				<path class="st0" d="M134.44,45.85h7.47v0.47c-1.73,1.53-3.2,4.6-3.2,8.47v39.6h-0.6l-35.67-35.73v26.8
					c0,3.87,1.47,6.93,3.2,8.47v0.47h-7.47v-0.47c1.87-1.73,3.2-4.6,3.2-8.47V58.39c0-8.47-1.4-11.33-3.07-12v-0.53h10.47
					l28.87,28.13v-19.2c0-3.87-1.33-6.73-3.2-8.47V45.85z"/>
				<path class="st0" d="M145.7,69.85c0-13.87,10.6-24.4,24.8-24.4c14.2,0,24.8,10.13,24.8,24c0,14.4-10.6,25.4-24.8,25.4
					S145.7,84.25,145.7,69.85z M179.37,69.65c0.07-19.93-4.33-23.2-8.87-23.2c-4.53,0-8.87,3.27-8.8,23.2
					c0.07,21.13,4.27,24.2,8.8,24.2S179.3,90.78,179.37,69.65z"/>
				<path class="st0" d="M231.36,45.85h9.8v0.47c-2.33,1-3.6,3.07-4.2,4.4l-18.13,43.67h-0.93l-19.33-41.14
					c-1.2-2.4-2.93-4.8-5.07-6.93v-0.47h24.27v0.47c-3.2,1-5.27,3.33-3.47,7.13l10.53,23.27l9.8-23.53c1.47-3.47-1.2-5.73-3.27-6.87
					L231.36,45.85L231.36,45.85z"/>
				<path class="st0" d="M273.96,87.92c0.8,1.6,1.67,4.4,4.4,6v0.47h-24v-0.47c3.2-1,5.2-3.33,3.47-7.13l-3.6-7.87l-13.47-0.07
					l-2.93,7.07c-1.47,3.6,0.87,6.87,2.87,8v0.47h-9.73v-0.47c2.27-1.4,3.6-3.07,4.2-4.4l18.07-43.67h0.93L273.96,87.92z
					 M241.29,77.58h12.33l-6.4-14.13L241.29,77.58z"/>
				<path class="st0" d="M327.56,46.31c-1.67,0.67-3,3.6-3,6.07v35.47c0,2.47,1.33,5.4,3,6.07v0.47h-20.27v-0.47
					c1.67-0.67,3-3.6,3-6.07V68.38h-14.27v19.47c0,2.47,1.33,5.4,3,6.07v0.47h-20.27v-0.47c1.67-0.67,3-3.6,3-6.07V52.38
					c0-2.47-1.33-5.4-3-6.07v-0.47h20.27v0.47c-1.67,0.67-3,3.6-3,6.07v14.67h14.27V52.38c0-2.47-1.33-5.4-3-6.07v-0.47h20.27V46.31
					z"/>
				<path class="st0" d="M331.82,69.85c0-13.87,10.6-24.4,24.8-24.4s24.8,10.13,24.8,24c0,14.4-10.6,25.4-24.8,25.4
					C342.42,94.85,331.82,84.25,331.82,69.85z M365.48,69.65c0.07-19.93-4.33-23.2-8.87-23.2c-4.53,0-8.87,3.27-8.8,23.2
					c0.07,21.13,4.27,24.2,8.8,24.2C361.15,93.85,365.42,90.78,365.48,69.65z"/>
				<path class="st0" d="M443.95,46.31c-1.67,0.67-3,3.6-3,6.07v35.47c0,2.47,1.33,5.4,3,6.07v0.47h-20.27v-0.47
					c1.67-0.67,3-3.6,3-6.07V53.72l-16.2,40.67h-0.6l-19.94-43.07v34.87c0,1.73,1.47,6.2,3.2,7.73v0.47h-7.47v-0.47
					c1.87-1.73,3.2-6,3.2-7.73v-33.8c0-2.47-1.33-5.4-3-6.07v-0.47h16.8l13.8,29.8l11.8-29.8h15.67v0.46H443.95z"/>
				<path class="st0" d="M485.28,83.25l-1.8,11.13h-35.14v-0.47c1.67-0.67,3-3.6,3-6.07V52.37c0-2.47-1.33-5.4-3-6.07v-0.47h33.2
					l1.73,11.13h-0.4c-1.87-4.93-6.47-10.07-17.27-10.27v20.54h6.67c1.33,0,4.73-3.27,5.47-6.4h0.4v13.8h-0.4
					c-0.73-3-4-6.33-5.47-6.33h-6.67v25.2c12.67-0.13,17.27-5.27,19.2-10.27h0.48V83.25z"/>
			</g>
		</g>
	</g>
	<g>
		<path class="st0" d="M34.16,60.19c-1.85-13.54-7.41-25.91-15.63-36.04C13.39,17.81,7.21,12.34,0.25,8.02v99.06H24.9h6.16h3.79
			v-6.44V70.22C34.85,66.82,34.62,63.47,34.16,60.19z"/>
		<path class="st0" d="M74.64,52.19C69.48,34.91,58.11,20.3,43.1,10.98c-2.64-1.64-5.39-3.12-8.24-4.42
			c-0.39-0.18-0.77-0.36-1.17-0.51c-0.58-0.26-1.17-0.51-1.76-0.73C23.46,1.88,14.2,0,4.5,0C2.99,0,1.49,0.05,0,0.14
			C3.72,1.82,7.28,3.8,10.63,6.05c4.15,2.78,7.99,5.97,11.48,9.53c5.07,5.15,9.38,11.05,12.74,17.52
			c4.78,9.16,7.67,19.46,8.16,30.38c0.06,1.13,0.08,2.26,0.08,3.39v40.21h16.94h9.35h8.31V81.8v-8.62
			C77.7,65.88,76.63,58.83,74.64,52.19z"/>
		<path class="st0" d="M77.7,16.51c-2.3-4.13-5.48-7.71-9.3-10.46c-5.28-3.82-11.76-6.06-18.77-6.06c-2.88,0-5.67,0.38-8.33,1.09
			c3.56,1.35,6.96,3.02,10.17,4.97c11.92,7.22,21.24,18.31,26.22,31.52c0.74,1.94,1.38,3.93,1.92,5.96c1.36-3.56,2.1-7.41,2.1-11.45
			C81.72,26.42,80.26,21.12,77.7,16.51z"/>
	</g>
</g>
</svg>
