<?xml version="1.0" encoding="utf-8"?>
<!-- Generator: Adobe Illustrator 28.0.0, SVG Export Plug-In . SVG Version: 6.00 Build 0)  -->
<svg version="1.1" id="Layer_1" xmlns="http://www.w3.org/2000/svg" xmlns:xlink="http://www.w3.org/1999/xlink" x="0px" y="0px"
	 viewBox="0 0 193.5 58.5" style="enable-background:new 0 0 193.5 58.5;" xml:space="preserve">
<style type="text/css">
	.st0{fill:#E4B267;}
	.st1{fill:#E9E6DD;}
	.st2{font-family:'NotoSans-Bold';}
	.st3{font-size:28px;}
	.st4{fill:#102C38;}
	.st5{fill:#FFFFFF;}
	.st6{fill:#4C5E65;}
</style>
<g>
	<path class="st0" d="M164.49,57.33h-163v-56h163c15.46,0,28,12.54,28,28v0C192.49,44.79,179.96,57.33,164.49,57.33z"/>
	<path class="st1" d="M24.99,50.33H8.49v-43h16.5c11.87,0,21.5,9.63,21.5,21.5v0C46.49,40.7,36.87,50.33,24.99,50.33z"/>
	<text transform="matrix(1 0 0 1 47.79 38.968)" class="st1 st2 st3">Book now</text>
	<path class="st4" d="M35.41,29.13l-0.35-0.35c0,0-0.01-0.01-0.01-0.01l-0.4-0.4l-5.59-5.59c-0.59-0.59-1.53-0.59-2.12,0
		c-0.59,0.59-0.59,1.54,0,2.12l3.44,3.44H15.99c-0.83,0-1.5,0.67-1.5,1.5s0.67,1.5,1.5,1.5h14.74l-3.8,3.8
		c-0.59,0.59-0.59,1.54,0,2.12c0.29,0.3,0.68,0.44,1.06,0.44s0.77-0.14,1.06-0.44l5.59-5.59h0l0.77-0.77
		c0.25-0.24,0.39-0.55,0.42-0.88C35.8,29.69,35.66,29.38,35.41,29.13z"/>
</g>
</svg>
