<?xml version="1.0" encoding="utf-8"?>
<!-- Generator: Adobe Illustrator 28.0.0, SVG Export Plug-In . SVG Version: 6.00 Build 0)  -->
<svg version="1.1" id="Layer_1" xmlns="http://www.w3.org/2000/svg" xmlns:xlink="http://www.w3.org/1999/xlink" x="0px" y="0px"
	 viewBox="0 0 198.57 203.91" style="enable-background:new 0 0 198.57 203.91;" xml:space="preserve">
<style type="text/css">
	.st0{fill:#E4B267;}
</style>
<g>
	<g>
		<g>
			<path class="st0" d="M88.27,93.45c-2.85-20.87-11.42-39.91-24.07-55.52c-7.92-9.77-17.44-18.19-28.17-24.85v152.6H74h9.49h5.83
				v-9.91V108.9C89.33,103.66,88.96,98.5,88.27,93.45z"/>
			<path class="st0" d="M150.62,81.12c-7.94-26.63-25.47-49.13-48.59-63.48c-4.07-2.53-8.3-4.81-12.7-6.81
				c-0.59-0.28-1.19-0.55-1.8-0.79c-0.9-0.4-1.8-0.78-2.71-1.13c-13.05-5.3-27.32-8.2-42.26-8.2c-2.33,0-4.64,0.07-6.93,0.22
				c5.73,2.59,11.21,5.63,16.38,9.11c6.39,4.28,12.32,9.2,17.68,14.68c7.81,7.93,14.45,17.03,19.63,26.99
				c7.36,14.11,11.81,29.97,12.57,46.8c0.09,1.74,0.13,3.48,0.13,5.23v61.94h26.1h14.4h12.81v-38.94v-13.27
				C155.34,102.22,153.7,91.36,150.62,81.12z"/>
			<path class="st0" d="M155.34,26.15c-3.55-6.37-8.44-11.87-14.32-16.12C132.89,4.15,122.9,0.7,112.1,0.7
				c-4.43,0-8.74,0.58-12.83,1.68c5.48,2.08,10.72,4.65,15.68,7.65c18.36,11.13,32.72,28.2,40.39,48.55
				c1.14,2.99,2.12,6.05,2.95,9.18c2.1-5.48,3.24-11.42,3.24-17.63C161.53,41.43,159.28,33.25,155.34,26.15z"/>
		</g>
		<g>
			<path class="st0" d="M19.14,178.47h3.81v0.24c-0.88,0.78-1.63,2.34-1.63,4.32v20.18H21L2.82,185v13.66
				c0,1.97,0.75,3.53,1.63,4.32v0.24H0.65v-0.24c0.95-0.88,1.63-2.34,1.63-4.32v-13.8c0-4.32-0.71-5.78-1.56-6.12v-0.27h5.33
				l14.71,14.34v-9.79c0-1.97-0.68-3.43-1.63-4.32V178.47z"/>
			<path class="st0" d="M24.88,190.71c0-7.07,5.4-12.44,12.64-12.44c7.24,0,12.64,5.17,12.64,12.23c0,7.34-5.4,12.95-12.64,12.95
				C30.28,203.45,24.88,198.05,24.88,190.71z M42.04,190.6c0.03-10.16-2.21-11.83-4.52-11.83c-2.31,0-4.52,1.67-4.49,11.83
				c0.03,10.77,2.17,12.34,4.49,12.34C39.83,202.94,42,201.38,42.04,190.6z"/>
			<path class="st0" d="M68.54,178.47h5v0.24c-1.19,0.51-1.83,1.56-2.14,2.24l-9.24,22.26h-0.48l-9.85-20.97
				c-0.61-1.22-1.5-2.45-2.58-3.53v-0.24h12.37v0.24c-1.63,0.51-2.68,1.7-1.77,3.64l5.37,11.86l5-12c0.75-1.77-0.61-2.92-1.67-3.5
				V178.47z"/>
			<path class="st0" d="M90.25,199.91c0.41,0.82,0.85,2.24,2.24,3.06v0.24H80.26v-0.24c1.63-0.51,2.65-1.7,1.77-3.64l-1.83-4.01
				l-6.86-0.03l-1.5,3.6c-0.75,1.83,0.44,3.5,1.46,4.08v0.24h-4.96v-0.24c1.16-0.71,1.83-1.56,2.14-2.24l9.21-22.26h0.48
				L90.25,199.91z M73.6,194.65h6.29l-3.26-7.2L73.6,194.65z"/>
			<path class="st0" d="M117.57,178.71c-0.85,0.34-1.53,1.83-1.53,3.09v18.08c0,1.26,0.68,2.75,1.53,3.09v0.24h-10.33v-0.24
				c0.85-0.34,1.53-1.83,1.53-3.09v-9.92h-7.27v9.92c0,1.26,0.68,2.75,1.53,3.09v0.24H92.69v-0.24c0.85-0.34,1.53-1.83,1.53-3.09
				V181.8c0-1.26-0.68-2.75-1.53-3.09v-0.24h10.33v0.24c-0.85,0.34-1.53,1.83-1.53,3.09v7.48h7.27v-7.48c0-1.26-0.68-2.75-1.53-3.09
				v-0.24h10.33V178.71z"/>
			<path class="st0" d="M119.74,190.71c0-7.07,5.4-12.44,12.64-12.44c7.24,0,12.64,5.17,12.64,12.23c0,7.34-5.4,12.95-12.64,12.95
				C125.14,203.45,119.74,198.05,119.74,190.71z M136.9,190.6c0.03-10.16-2.21-11.83-4.52-11.83s-4.52,1.67-4.49,11.83
				c0.03,10.77,2.17,12.34,4.49,12.34S136.87,201.38,136.9,190.6z"/>
			<path class="st0" d="M176.89,178.71c-0.85,0.34-1.53,1.83-1.53,3.09v18.08c0,1.26,0.68,2.75,1.53,3.09v0.24h-10.33v-0.24
				c0.85-0.34,1.53-1.83,1.53-3.09v-17.4l-8.26,20.73h-0.31l-10.16-21.95v17.77c0,0.88,0.75,3.16,1.63,3.94v0.24h-3.81v-0.24
				c0.95-0.88,1.63-3.06,1.63-3.94V181.8c0-1.26-0.68-2.75-1.53-3.09v-0.24h8.56l7.03,15.19l6.01-15.19h7.99V178.71z"/>
			<path class="st0" d="M197.96,197.54l-0.92,5.67h-17.91v-0.24c0.85-0.34,1.53-1.83,1.53-3.09V181.8c0-1.26-0.68-2.75-1.53-3.09
				v-0.24h16.92l0.88,5.67h-0.2c-0.95-2.51-3.3-5.13-8.8-5.23v10.47h3.4c0.68,0,2.41-1.67,2.79-3.26h0.2v7.03h-0.2
				c-0.37-1.53-2.04-3.23-2.79-3.23h-3.4v12.85c6.46-0.07,8.8-2.68,9.79-5.23H197.96z"/>
		</g>
	</g>
</g>
</svg>
